<?xml version="1.0" encoding="utf-8"?>
<!-- Generator: Adobe Illustrator 25.1.0, SVG Export Plug-In . SVG Version: 6.00 Build 0)  -->
<svg version="1.1" id="Capa_1" xmlns="http://www.w3.org/2000/svg" xmlns:xlink="http://www.w3.org/1999/xlink" x="0px" y="0px"
	 width="128px" height="128px" viewBox="0 0 128 128" style="enable-background:new 0 0 128 128;" xml:space="preserve">
<style type="text/css">
	.st0{fill:#FFFFFF;}
</style>
<path class="st0" d="M118.4,29.6C99.3,0,60.2-8.8,29.9,9.6C0.4,28-9.2,68,9.9,97.6l1.6,2.4l-6.4,24l23.9-6.4l2.4,1.6
	c10.4,5.6,21.5,8.8,32.7,8.8c12,0,23.9-3.2,34.3-9.6C128,99.2,136.8,60,118.4,29.6z M101.7,91.2c-3.2,4.8-7.2,8-12.8,8.8
	c-3.2,0-7.2,1.6-23.1-4.8C52.2,88.8,41,78.4,33.1,66.4c-4.8-5.6-7.2-12.8-8-20c0-6.4,2.4-12,6.4-16c1.6-1.6,3.2-2.4,4.8-2.4h4
	c1.6,0,3.2,0,4,3.2c1.6,4,5.6,13.6,5.6,14.4c0.8,0.8,0.8,2.4,0,3.2c0.8,1.6,0,3.2-0.8,4s-1.6,2.4-2.4,3.2c-1.6,0.8-2.4,2.4-1.6,4
	c3.2,4.8,7.2,9.6,11.2,13.6c4.8,4,9.6,7.2,15.2,9.6c1.6,0.8,3.2,0.8,4-0.8c0.8-1.6,4.8-5.6,6.4-7.2s2.4-1.6,4-0.8l12.8,6.4
	c1.6,0.8,3.2,1.6,4,2.4C103.3,85.6,103.3,88.8,101.7,91.2z"/>
</svg>
