<?xml version="1.0" encoding="utf-8"?>
<!-- Generator: Adobe Illustrator 25.1.0, SVG Export Plug-In . SVG Version: 6.00 Build 0)  -->
<svg version="1.1" id="Capa_1" xmlns="http://www.w3.org/2000/svg" xmlns:xlink="http://www.w3.org/1999/xlink" x="0px" y="0px"
	 width="128px" height="128px" viewBox="0 0 128 128" style="enable-background:new 0 0 128 128;" xml:space="preserve">
<style type="text/css">
	.st0{fill:#FFFFFF;}
</style>
<path class="st0" d="M125.6,100.3L96.4,73.7c-1.4-1.3-3.2-1.9-5.1-1.9c-1.9,0.1-3.6,0.8-4.9,2.2L69.3,91.7
	c-4.1-0.8-12.5-3.4-21-11.9c-8.6-8.6-11.2-16.9-11.9-21L54,41.5c1.3-1.3,2.1-3.1,2.2-4.9c0.1-1.9-0.6-3.7-1.9-5.1L27.7,2.4
	c-1.3-1.4-3-2.2-4.9-2.3c-1.9-0.1-3.7,0.5-5.1,1.7L2.1,15.1c-1.2,1.2-2,2.9-2.1,4.7C0,21.6-2.1,64.1,30.9,97.1
	c28.8,28.8,64.8,30.9,74.8,30.9c1.5,0,2.3,0,2.6-0.1c1.8-0.1,3.4-0.8,4.7-2.1l13.4-15.6c1.2-1.4,1.8-3.3,1.7-5.1
	C127.9,103.3,127,101.5,125.6,100.3z"/>
<g>
</g>
<g>
</g>
<g>
</g>
<g>
</g>
<g>
</g>
<g>
</g>
<g>
</g>
<g>
</g>
<g>
</g>
<g>
</g>
<g>
</g>
<g>
</g>
<g>
</g>
<g>
</g>
<g>
</g>
</svg>
