<?xml version="1.0" encoding="utf-8"?>
<!-- Generator: Adobe Illustrator 25.1.0, SVG Export Plug-In . SVG Version: 6.00 Build 0)  -->
<svg version="1.1" id="Capa_1" xmlns="http://www.w3.org/2000/svg" xmlns:xlink="http://www.w3.org/1999/xlink" x="0px" y="0px"
	 width="125px" height="96.1px" viewBox="0 0 125 96.1" style="enable-background:new 0 0 125 96.1;" xml:space="preserve">
<style type="text/css">
	.st0{fill:#FFFFFF;}
</style>
<path class="st0" d="M118.7,0c-0.5-0.1-1.1-0.1-1.6,0H7.8c-0.7,0-1.4,0.1-2.1,0.3l56.4,56.2L118.7,0z"/>
<path class="st0" d="M124.5,7.8L67.7,64.5c-1.5,1.5-3.4,2.3-5.5,2.3c-2.1,0-4-0.8-5.5-2.3L0.3,8.2C0.1,8.9,0,9.5,0,10.2v78.1
	c0,2.1,0.8,4.1,2.3,5.5c1.5,1.5,3.5,2.3,5.5,2.3h109.4c2.1,0,4.1-0.8,5.5-2.3c1.5-1.5,2.3-3.5,2.3-5.5V10.2
	C125,9.4,124.8,8.6,124.5,7.8L124.5,7.8z M13.2,88.3H7.7v-5.6l28.4-28.2l5.5,5.5L13.2,88.3z M117.1,88.3h-5.5L83.2,60.1l5.5-5.5
	l28.4,28.2L117.1,88.3z"/>
<g>
</g>
<g>
</g>
<g>
</g>
<g>
</g>
<g>
</g>
<g>
</g>
<g>
</g>
<g>
</g>
<g>
</g>
<g>
</g>
<g>
</g>
<g>
</g>
<g>
</g>
<g>
</g>
<g>
</g>
</svg>
