<?xml version="1.0" encoding="UTF-8"?>
<svg id="Capa_1" data-name="Capa 1" xmlns="http://www.w3.org/2000/svg" width="1520.4" height="781.4" version="1.1" viewBox="0 0 1520.4 781.4">
  <defs>
    <style>
      .cls-1 {
        fill: #cec7ba;
      }

      .cls-1, .cls-2, .cls-3, .cls-4, .cls-5 {
        stroke-width: 0px;
      }

      .cls-2 {
        fill: #3fab33;
      }

      .cls-3 {
        fill: #9e937d;
      }

      .cls-4 {
        fill: #fff;
      }

      .cls-5 {
        fill: #0f7a60;
      }
    </style>
  </defs>
  <path class="cls-3" d="M2.1,461.6c0-3.7,0-6.1,0-8.5,0-40.6,0-81.3-.1-121.9,0-3.9,1.2-5.5,4.8-6.6,32.9-10.1,65.7-20.3,98.6-30.5,16.8-5.2,33.5-10.7,50.3-15.8,23.5-7.2,47-14.2,70.4-21.4,33.4-10.4,66.8-21,100.2-31.3,19.3-6,38.7-11.5,57.9-17.5,18.2-5.7,36.2-11.8,54.4-17.4,16.3-5.1,32.7-9.6,49-14.7,20.3-6.3,40.4-12.9,60.7-19.2,6.8-2.1,13.8-3.7,20.4-6.4,2.5-1,3.2,0,3.2,2.5-.1,5,0,10,0,15,0,66,0,131.9.1,197.9,0,4.7-.8,5.3-5.4,4.1-26-7-52.3-12.7-78.8-17.8-22.9-4.3-46-7-69.1-9.7-11-1.3-22.1-1.8-33.2-2.4-18.3-1-36.6-1.3-54.9-.7-20,.6-39.9,2.1-59.8,4.4-24.2,2.7-48.1,6.7-71.6,12.4-50.1,12.2-98.7,28.1-142.6,56.1-18.7,11.9-35.1,26.4-49.7,43-1.5,1.7-2.6,3.6-4.8,6.5Z"/>
  <path class="cls-2" d="M311.4,430c-46.9-.5-86.8,2.6-126.5,8.8-33.2,5.2-65.4,13.7-96.2,27.2-12,5.3-23.3,11.8-34.3,19-19.2,12.5-34.9,28.3-47.9,47-1,1.5-1.8,3.2-2.5,4.8-.6,1.5-1.8,1.3-2.9,1.2-1.4-.1-1.2-1.1-1-2.2,3.2-13.7,6.9-27.2,14.6-39.3,11-17.5,25.2-31.8,41.7-44.3,13.6-10.3,27.7-19.5,42.8-27.2,18.9-9.6,38.3-17.9,58.3-24.9,21.5-7.5,43.6-13.2,65.8-17.9,14.8-3.1,29.7-5.4,44.8-6.9,9.5-.9,19-3,28.6-3.4,30.9-1.5,61.9-1.7,92.8-.4,26.3,1.1,52.3,4.6,78.3,8.5,13.5,2,26.8,4.9,40.1,7.7,23.7,5,47.2,10.5,70.5,17,34.3,9.5,68.2,20,101.9,31.4,11.3,3.8,22.4,8.1,33.6,11.9,12.8,4.3,25.8,8.6,38.7,12.9,16.3,5.4,32.4,11.3,48.6,17,14.5,5,29.1,9.8,43.5,14.9,35,12.6,70.6,22.9,106.3,33.1,16.1,4.6,32.4,8.8,48.7,12.7,17.8,4.3,35.8,7.5,53.7,11.4,7.3,1.6,14.9,2.9,22.1,4.1,11.6,1.9,23.3,3.7,34.9,5.3,21.1,2.8,42.2,5.7,63.3,8,25.6,2.8,51.3,4.3,77.1,4.2,31.4-.2,62.5-3.5,93.4-9.1,15.2-2.8,30.3-6.2,45.3-9.9,2.7-.7,5.3-2,8-2.7,1.1-.3,3-1,3.4.6.5,1.7-1.5,1.8-2.7,2.3-15.7,6.4-32.3,10.2-48.1,16.2-26.8,10.2-55.1,13.6-83.3,16.9-17,2-34.2,1.9-51.3,3.2-14.5,1.1-28.8-.3-43.1-.5-13.8-.2-27.8-1-41.7-2.4-17.7-1.7-35.4-3.1-53.1-5.3-31-3.8-61.9-8.6-92.6-14.6-19.1-3.7-38.2-7.2-57.2-11.4-35-7.7-69.9-15.6-104.7-23.9-27.6-6.6-55.2-13.8-82.6-21-38.4-10.1-76.7-20.8-115.1-30.7-34.6-8.9-69.3-17.3-104.3-24.5-31.1-6.4-62.3-12.2-93.8-16.4-23.8-3.1-47.6-5.7-71.5-7.1-17.1-1-34.2-1.1-44.6-1.4Z"/>
  <path class="cls-3" d="M789.4,38c0,10.2-.2,20.3.1,30.5,0,3.5-1,5-4.3,6-39.3,11.9-78.6,23.9-117.8,35.9-30,9.2-59.9,18.7-89.9,28-21.7,6.7-43.5,13.1-65.2,19.8-16.3,5-32.5,10.2-48.8,15.2-18.5,5.7-37.2,11.1-55.7,16.8-23.5,7.2-46.8,14.7-70.3,22-34.6,10.7-69.3,21.2-104,31.9-35.4,10.9-70.7,22-106.1,32.9-25.1,7.7-50.2,15.2-75.3,22.9-15.1,4.6-30.2,9.3-45.1,14.3-3.9,1.3-4.9.6-4.8-3.5.2-10.8.2-21.7,0-32.5,0-3.4.9-5.1,4.1-6.2,15.8-5.2,31.5-10.7,47.2-16.1,25.6-8.9,51.1-18,76.6-26.9,27.2-9.5,54.4-18.9,81.5-28.3,34.3-12,68.7-24,103-36,37.8-13.2,75.6-26.3,113.4-39.4,31.1-10.8,62.1-21.8,93.2-32.6,50.5-17.6,101-35.1,151.5-52.6,31.1-10.8,62-22.1,93.4-32.3,6.3-2.1,12.4-4.6,18.6-7.1,2.9-1.2,4.5-1,4.7,2.9.7,11.5,0,23,0,34.5Z"/>
  <path class="cls-1" d="M784.8,430c-4.4.3-8.5-1-12.7-2.1-37.2-9.8-74.5-19.7-111.7-29.3-24.4-6.3-48.6-13.5-73.2-18.8-4-.8-4.3-3-4.3-6.3,0-69.8,0-139.5,0-209.3,0-3.8,0-7.7,0-11.5,0-2.5.9-2.7,3-1.9,27.4,11.1,54.8,22.2,82.3,33.1,31.8,12.7,63.6,25.2,95.5,37.7,7.7,3,15.1,6.8,23.1,9.1.2,14.3-.4,28.6-.6,42.9-.5,42.5-.3,85-.3,127.4,0,9.7-.3,19.3-1.2,28.9Z"/>
  <path class="cls-3" d="M798.8,37.5c0-11.3,0-22.7,0-34,0-1.1-.7-2.5.6-3.1,1.3-.6,2,.7,2.9,1.4,75.5,56.9,151.1,113.8,226.6,170.7,37.8,28.4,75.6,56.8,113.4,85.3,30.6,23,61.1,46.2,91.7,69.2,34.5,26,69.1,52,103.8,77.8,2.9,2.1,2.9,4.6,2.8,7.4-.1,3.6.8,9.7-.7,10.3-3.3,1.5-6.1-2.9-9.1-4.8-36.9-23.6-73.6-47.4-110.4-71.1-66.7-42.9-133.4-85.7-200-128.6-54.2-34.9-108.3-69.8-162.5-104.7-18.3-11.8-36.7-23.6-55.2-35.2-2.9-1.8-4.1-3.7-4-7.1.2-11.2,0-22.3,0-33.5Z"/>
  <path class="cls-5" d="M1299.2,545.2c.9,0,1.9,0,2.8-.1.3,0,.6-.2.9-.2,48.5-6.3,83.3-31.1,102.4-76.6,3.2-7.6,5.6-15.5,7.1-23.6.4-2.1,2.1-3,3.7-4,18.6-10.6,36.2-22.5,51.6-37.4,18.2-17.7,32-38.1,39.7-62.4.8-2.5.1-5.4,1.8-7.7,1.1.4,1.4,1.4,1.4,2.3-.2,18.4.8,36.8-2.9,55-11.7,58.4-43.2,103-94.2,133.5-29.9,17.9-62.8,27.6-97.1,33.1-25.1,4-50.4,4.4-75.7,3.7-24.3-.7-48.5-3.9-72.6-7.3-22-3.1-43.9-7.3-65.7-11.8-23.6-4.9-46.9-10.6-70.2-17-13.6-3.7-27.3-7.4-40.8-11.3-14.2-4.1-28.4-8.7-42.5-13-12.7-3.8-25.2-8.1-37.7-12.2-21.5-7-42.6-15-63.9-22.5-8.4-3-16.9-5.5-25.1-8.9-6-2.5-12.6-4-18-8.4,24.2,6,47,15.4,70.5,22.4,14.8,4.4,29.1,10.2,43.9,14.3,15.7,4.4,31.1,9.8,46.8,14.2,24.9,7.1,49.8,14.1,74.9,20.1,27.5,6.6,55.2,11.9,83.4,14.9,14.8,1.5,29.6,2.3,44.2,1.7,11.5-.5,23.3-2.7,34.7-6.1,18.3-5.5,33.2-16.1,46.9-29.1,13.8-13.2,29.8-23.4,48.1-29.4,12.6-4.2,25.5-6.9,38.9-7.8,14.7-1,28.7,2.1,43.5,4.1-1.4,3.4-4.1,2.6-5.9,2.9-23,3.8-36.4,18-44.1,39-5.7,15.5-15.4,27.5-31.3,33.5-1.6,2.4-5.1,1.2-7.1,3.6,3,.7,5.1-.8,7.4-1.4Z"/>
  <path class="cls-1" d="M849.7,447.1c-15.9-4-32.1-6.9-47.7-12.2.4-16.8-.3-33.6.7-50.4,1.2-19.9.4-39.9,1-59.8.9-29.3.4-58.6.5-87.9.9,1.1,1.4,2.5,3.1,3,14.8,4.9,29.2,11,43.7,17,.6,18.1-.7,36.2-.8,54.3-.3,45.3-.3,90.6-.4,135.8Z"/>
  <path class="cls-1" d="M908.1,460.8c-11.1-1.7-21.8-4.7-32.7-7.2-3.8-.9-7.7-1.9-11.5-2.8,0-1.5.2-3,.2-4.5,0-54.8,0-109.7,0-164.5,0-6.6.1-13.3.2-19.9,15.6,6.4,31.1,12.7,46.7,19.1-.2,24.8.7,49.5-.8,74.3-.9,15.7,0,31.5-.9,47.3-1.1,19.4.3,38.9-1.2,58.3Z"/>
  <path class="cls-3" d="M804.2,236.8c0,29.3.4,58.6-.5,87.9-.6,19.9.2,39.9-1,59.8-1,16.8-.3,33.6-.7,50.4-5.9-.9-12-1.4-17.2-4.9.9-9.6,1.2-19.2,1.2-28.9,0-42.5-.3-85,.3-127.4.2-14.3.8-28.6.6-42.9,0-2,0-4,.2-6,1.5-35.4.7-70.8,1.3-106.2.2-10.5.1-21,.2-31.4,0-.8,0-1.9.4-2.3,1-.9,1.7.3,2.5.8,4,2.4,8,4.8,12.1,7,2.5,1.4,3.7,3,2.8,6-.6,2-.4,4.3-.5,6.4-.4,35.1-.6,70.2-1.2,105.2-.2,8.8-.5,17.6-.4,26.4Z"/>
  <path class="cls-1" d="M998,480.8c-11.5-1.9-22.9-4.2-34.2-7.1,0-3,.1-6,.1-9,0-54.3.1-108.6.2-162.8,12,4.7,23.9,9.4,35.9,14.1.6,16.4-1.1,32.9-.9,49.3.5,38.5-1.2,77.1-1.1,115.6Z"/>
  <path class="cls-1" d="M948,469.8c-8.3-.6-16.2-3.1-24.2-5.1,0-1.8.2-3.7.2-5.5,0-57.8,0-115.5,0-173.3,9,3.6,17.9,7.3,26.9,10.9-.1,19.3.5,38.5-.7,57.8-1,16.7-.2,33.5-.9,50.3-.9,21.6-.3,43.2-1.2,64.8Z"/>
  <path class="cls-3" d="M864.3,261.8c0,6.6-.2,13.3-.2,19.9,0,54.8,0,109.7,0,164.5,0,1.5-.1,3-.2,4.5-4.7-1.2-9.4-2.5-14.2-3.7.1-45.3,0-90.6.4-135.8.1-18.1,1.4-36.2.8-54.3,1.8-25.2.8-50.5,1.3-75.8.4-17.6.5-35.3.6-52.9,0-3.2.5-3.8,3.6-2.3,5.8,2.7,7.9,6.4,7.8,13-.3,40.9-.1,81.9,0,122.8Z"/>
  <path class="cls-1" d="M1036.2,488.6c-8.1-1.2-16.3-2.3-24.2-4.7,0-1.5.2-3,.2-4.5,0-50.6,0-101.2,0-151.8,0-1.9-.7-4,.9-5.7,7.3,1.8,14,5.4,21.1,7.7,1.5.5,2.9,1.6,4.7,1.2.8,17.8-1.2,35.5-1,53.3,0,7.1-.5,14.3-.7,21.4-.8,27.7-.8,55.4-1,83.1Z"/>
  <path class="cls-3" d="M924,285.9c0,57.8,0,115.5,0,173.3,0,1.8-.1,3.7-.2,5.5-5.4-.8-10.7-1.8-15.8-3.9,1.5-19.4,0-38.9,1.2-58.3.9-15.8,0-31.6.9-47.3,1.4-24.8.6-49.5.8-74.3.4-37.4.8-74.9,1.3-112.3,0-1.9-1-4.5,1-5.6,2.2-1.3,3.7,1.6,5.6,2.2,4.9,1.6,5.2,5,5.2,9.4,0,37.1,0,74.3,0,111.4Z"/>
  <path class="cls-3" d="M948,469.8c.9-21.6.3-43.2,1.2-64.8.7-16.8,0-33.6.9-50.3,1.1-19.3.5-38.6.7-57.8.7-37.1,1.6-74.2,1.3-111.3,9,1.9,11.7,5.1,11.7,13.4,0,33,0,65.9,0,98.9,0,1.3.1,2.7.2,4,0,54.3,0,108.6-.2,162.8,0,3,0,6-.1,9-5.3-1.1-10.9-1.1-15.8-3.8Z"/>
  <path class="cls-3" d="M1036.2,488.6c.3-27.7.3-55.4,1-83.1.2-7.1.7-14.2.7-21.4-.2-17.8,1.7-35.5,1-53.3.2-22.4.4-44.9.6-67.3,0-6.3.4-12.6.6-18.9,0-1.2-.3-2.8,1.9-2.6,4.4.4,9.9,6.4,9.9,11.1,0,27.9.1,55.8.2,83.8,0,33.4,0,66.9,0,100.3,0,18.1-.1,36.3-.2,54.4-5.2-.9-10.5-1.4-15.6-3.1Z"/>
  <path class="cls-3" d="M1013.1,321.9c-1.6,1.7-.9,3.8-.9,5.7,0,50.6,0,101.2,0,151.8,0,1.5-.1,3-.2,4.5-4.7-.8-9.5-1.2-13.9-3.1-.2-38.5,1.6-77.1,1.1-115.6-.2-16.4,1.4-32.8.9-49.3,0-.7.2-1.3.2-2,.4-19.6.7-39.2,1.1-58.8.2-12,.4-23.9.6-35.9,0-1-.4-2.1.6-2.7,1.1-.6,1.7.4,2.5,1,2.3,1.5,4.7,2.9,7,4.4.3.4.5.8.8,1.1,0,.9,0,1.9,0,2.8-.1.1-.3.3-.3.4,0,.3.2.6.3.8,0,29.6,0,59.2,0,88.9,0,2,.2,4,.3,6Z"/>
  <path class="cls-3" d="M1070.8,342.8c.5-27.1,0-54.2,1.1-81.4,9.3,2.8,11.1,5.1,11.1,14.1,0,24.5,0,48.9,0,73.4,0,10.3.7,20.6.8,30.8.4,37.6.2,75.1.3,112.7,0,1.6.6,3.4-1.1,4.6-4.9-.8-9.8-1.6-14.7-2.5-.1-15.4-.2-30.8.4-46.3.6-16.4-.2-32.9.6-49.3.9-18.7.5-37.4,1.5-56.1Z"/>
  <path class="cls-3" d="M1107.9,500.4c-4.6-.6-9.1-1.2-13.7-1.7-.4-9.1.4-18.3.6-27.4.7-38.8.9-77.5,1.3-116.3,1.1-24.4,1.7-48.8,1.9-73.2,0-1.4-.8-3.4.5-4.2,1.7-1.1,2.3,1.4,3.6,1.8,8,2.5,7.9,8.5,7.8,15.4-.3,21.8,0,43.5,0,65.3-.3,45.2.6,90.5-.8,135.7,0,1.6.2,3.4-1.2,4.6Z"/>
  <path class="cls-1" d="M1070.8,342.8c-1,18.7-.6,37.4-1.5,56.1-.8,16.4,0,32.9-.6,49.3-.6,15.4-.6,30.8-.4,46.3-5.5-1-10.9-1.9-16.4-2.9,0-18.1.2-36.3.2-54.4,0-33.4,0-66.9,0-100.3,5.5,2.1,11,4.2,16.5,6.4.9.4,1.6,0,2.2-.5Z"/>
  <path class="cls-3" d="M1157.8,503.7c-4,.1-8,.7-11.8-.9,0-4.3,0-8.6,0-13,0-38.3-.2-76.7.9-115,0-20.8.1-41.6.2-62.4,0-1.4-.9-3.3.7-4.1,1.6-.8,2.6.8,3.5,2,.2.2.5.4.8.5,7.5,2.3,7.2,8.1,7.2,14.4-.2,18.1.1,36.2.2,54.4-.1,1.8-.4,3.6-.4,5.5,0,39.3,0,78.6,0,117.8,0,0,0,0,0,0-.4.3-.7.5-1.1.8Z"/>
  <path class="cls-3" d="M1121.9,364.9c.4-18.4.8-36.9,1.1-55.3,0-4.6.3-9.2.8-13.9.3-2.2.9-2.7,2.8-1.5,3.6,2.3,5.7,4.7,5.6,9.8-.4,21.6-.2,43.3-.2,64.9,0,1.8-.1,3.7-.1,5.5,0,42.4-.1,84.8-.2,127.2-3.9,3.2-7.8.2-11.7.2-2-2.5-.1-5.2-.1-7.7,0-27.4.9-54.8,1.8-82.2.5-15.6.2-31.3.2-46.9Z"/>
  <path class="cls-1" d="M1159,502.9c0-39.3,0-78.6,0-117.8,0-1.8.2-3.6.4-5.5,5.2,2.2,10.6,3.9,15.3,7.2,0,.7.2,1.3.2,2-.3,36.5-.5,73-.8,109.5,0,2.2.6,3.5,2.9,3.8-6,1.8-12.1.3-18.1.8Z"/>
  <path class="cls-1" d="M1131.8,501.6c0-42.4.1-84.8.2-127.2,0-1.8,0-3.7.1-5.5,4.9,2,9.9,4,14.8,6-1.1,38.3-.9,76.7-.9,115,0,4.3,0,8.6,0,13-4.8-.2-9.7,1.3-14.3-1.2Z"/>
  <path class="cls-1" d="M1096,355c-.4,38.8-.5,77.5-1.3,116.3-.2,9.1-.9,18.2-.6,27.4-3.8,0-7.6-.6-11.2-1.6,1.7-1.2,1.1-3,1.1-4.6,0-37.6.1-75.1-.3-112.7-.1-10.3-.8-20.5-.8-30.8,3.8,3.3,8.9,3.6,13,6.1Z"/>
  <path class="cls-3" d="M1177.1,502c-2.3-.2-3-1.6-2.9-3.8.3-36.5.6-73,.8-109.5,0-.7-.1-1.3-.2-2,.1-19.1.2-38.2.3-57.3,0-1.2-.8-2.9.6-3.7,1.5-.8,2.2,1.2,3.3,1.6,5.9,2.1,5.8,6.2,5.5,11.9-.8,17.1-1,34.2,0,51.2-.2,1.1-.5,2.3-.5,3.4,0,35.6-.1,71.2-.2,106.8-2.1,1.5-4.5,1-6.8,1.3Z"/>
  <path class="cls-1" d="M1121.9,364.9c0,15.6.3,31.3-.2,46.9-.9,27.4-1.8,54.8-1.8,82.2,0,2.6-1.9,5.2.1,7.7-4.2.4-8.2-.5-12.2-1.4,1.5-1.3,1.2-3,1.2-4.6,1.4-45.2.5-90.5.8-135.7,4,1.6,8,3.3,12,4.9Z"/>
  <path class="cls-3" d="M1271.9,424.9c0-11.8.2-23.6.1-35.5,0-3.5,1-3.5,3.6-2.1,4.1,2.2,6.3,4.9,6,10.1-.5,9.6-.1,19.3,0,29,0,1.4-1.2,4.1,1.8,4.2,3,0,2-2.5,2.1-4.1,0-9.8,0-19.6,0-29.5,0-.8.2-1.5.2-2.4q8.9,3.7,8.9,12c0,11.6-.6,23.3.8,34.9.8,6.6-1.6,10.8-7.2,13.6-1.2.6-2.3,1.3-4,2.3-.5-5.7-.3-10.9,0-16.1.1-2,.2-4,.3-6,0-1.4,0-3-1.8-2.9-1.8,0-.9,1.8-.9,2.8-.1,5-.7,10.1,0,15,1.1,7.8-2.3,12.2-9.1,14.8-1.6-1.3-1-3.1-1-4.7,0-11.8,0-23.6-.1-35.5Z"/>
  <path class="cls-1" d="M1183.9,500.8c0-35.6,0-71.2.2-106.8,0-1.1.3-2.3.5-3.4,3.8,1.1,7.5,2.2,11.3,3.3,0,35.1,0,70.1,0,105.2-4,.9-7.9,2.3-12.1,1.8Z"/>
  <path class="cls-3" d="M1224.1,360c.2,13.6.3,27.2.5,40.8-.9,1.8-1.1,3.5.3,5.2,0,0,0,0,0,0-.3,2.3-.8,4.6-.8,6.9,0,23.8,0,47.6,0,71.4,0,2,0,4,1.2,5.7-2.9,1.9-6,3-9.3,3.9-2.1-1.5-1.1-3.7-1.1-5.5,0-30.5,0-61.1-.1-91.6,0-13.8,0-27.7,0-41.5,0-1.4-.8-3.3.8-4,1.5-.7,2.7.9,4,1.6,1.5.9,2.9,2,4.3,3,0,1.4,0,2.7.1,4.1Z"/>
  <path class="cls-3" d="M1196,499c0-35.1,0-70.1,0-105.2,0-16.6,0-33.2,0-49.9,0-1.6-.9-3.7.6-4.6,1.5-.9,2.4,1.3,3.7,1.9,1.2.5,2.4,1.2,3.5,1.8.1.7.3,1.3.4,2,0,.9,0,1.8.1,2.7-.1,7.8-.4,15.6-.3,23.4,0,5.9-.8,11.9.6,17.8,0,1.3,0,2.6,0,3.8-1.4,3.7-.5,7.6-.5,11.4,0,31,0,62,0,92.9-2.6,1.3-5.4,1.9-8.3,1.9Z"/>
  <path class="cls-3" d="M1241.9,482.8c-3,2.3-6.4,3.7-9.9,4.9,0-26.2,0-52.5,0-78.7,0-14.7,0-29.3.1-44,0-1.2-.8-2.9.7-3.6,1.3-.6,2.3.9,3.5,1.5,4.3,2,5.6,5.3,5.5,10-.2,13.7.1,27.3.3,41,0,23,0,46-.1,69Z"/>
  <path class="cls-1" d="M1204.3,497.1c0-31-.1-62,0-92.9,0-3.8-.9-7.6.5-11.4-.6,6.4,4.4,7.1,8.8,8.5.4-1.5.8-3,1.2-4.5,0,30.5,0,61.1.1,91.6,0,1.9-.9,4,1.1,5.5-3.7,2-7.7,2.5-11.7,3.1Z"/>
  <path class="cls-3" d="M1246.9,414.9c.1-13.6.3-27.2.4-40.8,0-1.1-.6-2.5.5-3.2,1.3-.8,2,.8,3,1.2,3.8,1.6,5.1,4.4,5,8.6-.2,12.8,0,25.5.2,38.3,0,18.6,0,37.3,0,55.9-2.5,3.4-6.5,4.1-9.9,5.8.3-3,.8-5.9.9-8.9,0-19,0-37.9,0-56.9Z"/>
  <path class="cls-3" d="M1260.1,420.1c1.6-6.5.5-13.2.7-19.8.2-6,0-12,0-17.9,0-1.1-.7-2.5.7-3.1,1.2-.5,2.1.7,3.1,1.2,2.5,1.4,3.6,3.3,3.5,6.4-.2,11.6,0,23.2,0,34.9,0,7.5-.3,15,.1,22.4.5,8,.8,15.9-.3,23.8-2.5,2-5.2,3.7-8.1,4.9,0-17.6,0-35.2.1-52.8Z"/>
  <path class="cls-1" d="M1232,409c0,26.2,0,52.5,0,78.7-2.1,1.3-4.3,2.2-6.8,2.4-1.3-1.7-1.2-3.7-1.2-5.7,0-23.8,0-47.6,0-71.4,0-2.3.5-4.6.8-6.9,2.3,1.3,4.5,2.6,7.2,3Z"/>
  <path class="cls-1" d="M1246.9,414.9c0,19,0,37.9,0,56.9,0,3-.6,5.9-.9,8.9-.7,1.9-2.4,2.1-4.1,2.2,0-23,0-46,.1-69,1.6.3,3.3.7,4.9,1Z"/>
  <path class="cls-3" d="M1297.8,447.4c0-14.3,0-28.6,0-42.9,0-.8,0-1.9.6-2.2,1.1-.8,1.7.5,2.5.9,4.4,2.1,5.6,5.6,5.4,10.4-.3,8.6.3,17.3.3,26,0,5.2-5.4,5.4-8.8,7.9Z"/>
  <path class="cls-3" d="M1318.9,422.7c0,6.6,1.2,12.5-5.7,15.4-2.3,1-3.3,1.1-3.3-1.8,0-7.9,0-15.9,0-23.8,0-2.4.6-2.7,2.9-1.8,6.5,2.4,7.3,7.3,6.1,12.1Z"/>
  <path class="cls-1" d="M1260.1,420.1c0,17.6,0,35.2-.1,52.8-.8,1.8-2.4,1.9-4.1,1.9,0-18.6,0-37.3,0-55.9,1.4.4,2.8.8,4.2,1.2Z"/>
  <path class="cls-1" d="M1268.1,468c1.1-7.9.7-15.9.3-23.8-.4-7.4-.1-14.9-.1-22.4.8,1.6,2.1,2.5,3.7,3.1,0,11.8,0,23.6.1,35.5,0,1.6-.6,3.4,1,4.7-1.2,1.7-3.1,2.3-4.9,3Z"/>
  <path class="cls-3" d="M1322.1,417.4c4.1.6,6.5,3.4,9.5,5,1,.5,1,1.8,0,2.5-2.2,1.9-4.4,4-6.9,5.5-1.7,1-1.7-.8-1.7-1.9,0-3.6.2-7.2-.9-11.1Z"/>
  <path class="cls-1" d="M1204.7,389c-1.4-5.9-.5-11.9-.6-17.8-.1-7.8.2-15.6.3-23.4,1.4,7.6.4,15.2.5,22.8.1,6.1-.1,12.3-.2,18.4Z"/>
  <path class="cls-1" d="M1224.8,405.9c-1.4-1.6-1.2-3.4-.3-5.2,0,1.7.2,3.4.3,5.2Z"/>
  <path class="cls-1" d="M1224.1,360c0-1.4,0-2.7-.1-4.1,1.3,1.3,1.1,2.7.1,4.1Z"/>
  <path class="cls-1" d="M1204.3,345c-.1-.7-.3-1.4-.4-2,1.1.5,1,1.2.4,2Z"/>
  <path class="cls-1" d="M1012.8,223.1c-.3-.4-.5-.8-.8-1.1.3.4.5.8.8,1.1Z"/>
  <path class="cls-1" d="M1157.8,503.7c.4-.3.7-.5,1.1-.8-.4.3-.7.5-1.1.8Z"/>
  <path class="cls-1" d="M1012.8,227.1c0-.3-.2-.6-.3-.8,0-.1.2-.2.3-.4,0,.4,0,.8,0,1.2Z"/>
  <g>
    <path class="cls-4" d="M6.4,749.7l10.6-74.2h1.2l30.2,60.9,29.9-60.9h1.2l10.7,74.2h-7.3l-7.3-53.1-26.2,53.1h-1.9l-26.5-53.5-7.3,53.5h-7.2Z"/>
    <path class="cls-4" d="M145.6,731.5l6,3.1c-2,3.8-4.2,6.9-6.8,9.3-2.6,2.4-5.4,4.1-8.6,5.4-3.2,1.2-6.8,1.8-10.9,1.8-9,0-16-2.9-21-8.8-5-5.9-7.6-12.5-7.6-19.9s2.1-13.2,6.4-18.6c5.4-6.9,12.7-10.4,21.8-10.4s16.8,3.5,22.4,10.6c4,5,6,11.3,6.1,18.8h-49.4c.1,6.4,2.2,11.6,6.1,15.7,3.9,4.1,8.8,6.1,14.6,6.1s5.5-.5,8.2-1.5c2.6-1,4.9-2.3,6.7-3.9,1.9-1.6,3.9-4.2,6-7.8ZM145.6,716.7c-.9-3.8-2.3-6.8-4.1-9-1.8-2.3-4.2-4.1-7.1-5.4-3-1.4-6.1-2.1-9.3-2.1-5.4,0-10,1.7-13.9,5.2-2.8,2.5-5,6.3-6.4,11.3h40.9Z"/>
    <path class="cls-4" d="M159.7,694.8h7.2v8c2.2-3.2,4.4-5.5,6.8-7.1,2.4-1.6,4.9-2.3,7.5-2.3s4,.6,6.3,1.9l-3.7,6c-1.5-.6-2.7-1-3.7-1-2.4,0-4.6,1-6.8,2.9-2.2,1.9-3.9,4.9-5,9-.9,3.1-1.3,9.4-1.3,19v18.6h-7.2v-54.9Z"/>
    <path class="cls-4" d="M242.6,706.2l-5.6,3.5c-4.8-6.4-11.4-9.6-19.8-9.6s-12.2,2.2-16.7,6.4c-4.4,4.3-6.6,9.5-6.6,15.7s1,7.8,3,11.3c2,3.5,4.8,6.3,8.4,8.2s7.5,2.9,11.9,2.9c8.1,0,14.6-3.2,19.7-9.6l5.6,3.7c-2.6,4-6.1,7-10.6,9.2-4.4,2.2-9.5,3.3-15.1,3.3-8.7,0-15.9-2.8-21.6-8.3-5.7-5.5-8.6-12.2-8.6-20.1s1.3-10.2,4-14.8c2.7-4.6,6.3-8.1,11-10.7,4.7-2.6,9.9-3.8,15.7-3.8s7.1.6,10.5,1.7c3.4,1.1,6.2,2.6,8.6,4.3s4.4,4.1,6,6.8Z"/>
    <path class="cls-4" d="M306.7,694.8v54.9h-7v-9.4c-3,3.6-6.3,6.3-10,8.1s-7.7,2.7-12.1,2.7c-7.8,0-14.4-2.8-19.9-8.4-5.5-5.6-8.2-12.5-8.2-20.6s2.8-14.7,8.3-20.3,12.2-8.4,20-8.4,8.6,1,12.2,2.9c3.6,1.9,6.9,4.8,9.6,8.6v-10.1h7ZM278.5,700.2c-3.9,0-7.6,1-10.9,2.9-3.3,1.9-6,4.6-7.9,8.1-2,3.5-2.9,7.2-2.9,11.1s1,7.6,3,11.1c2,3.5,4.6,6.3,8,8.2,3.3,2,6.9,2.9,10.8,2.9s7.5-1,11-2.9,6.1-4.6,8-7.9c1.9-3.3,2.8-7.1,2.8-11.2,0-6.3-2.1-11.7-6.3-15.9-4.2-4.3-9.3-6.4-15.4-6.4Z"/>
    <path class="cls-4" d="M373.3,673.6v76.1h-7v-9.4c-3,3.6-6.3,6.3-10,8.1s-7.7,2.7-12.1,2.7c-7.8,0-14.4-2.8-19.9-8.4-5.5-5.6-8.2-12.5-8.2-20.6s2.8-14.7,8.3-20.3,12.2-8.4,20-8.4,8.6,1,12.2,2.9c3.6,1.9,6.9,4.8,9.6,8.6v-31.3h7ZM345,700.2c-3.9,0-7.6,1-10.9,2.9-3.3,1.9-6,4.6-7.9,8.1-2,3.5-2.9,7.2-2.9,11.1s1,7.6,3,11.1c2,3.5,4.6,6.3,8,8.2s6.9,2.9,10.8,2.9,7.5-1,11-2.9c3.5-1.9,6.1-4.6,8-7.9,1.9-3.3,2.8-7.1,2.8-11.2,0-6.3-2.1-11.7-6.3-15.9-4.2-4.3-9.3-6.4-15.4-6.4Z"/>
    <path class="cls-4" d="M411.1,693.4c8.5,0,15.5,3.1,21,9.2,5.1,5.6,7.6,12.2,7.6,19.8s-2.7,14.4-8,20.1c-5.3,5.7-12.2,8.6-20.6,8.6s-15.3-2.9-20.6-8.6c-5.3-5.7-8-12.4-8-20.1s2.5-14.2,7.6-19.8c5.6-6.2,12.6-9.2,21.1-9.2ZM411.1,700.3c-5.9,0-10.9,2.2-15.1,6.5s-6.3,9.6-6.3,15.7,1,7.7,2.9,11.1c1.9,3.4,4.5,6.1,7.8,7.9,3.3,1.9,6.9,2.8,10.8,2.8s7.5-.9,10.8-2.8c3.3-1.9,5.9-4.5,7.8-7.9,1.9-3.4,2.9-7.1,2.9-11.1,0-6.2-2.1-11.4-6.4-15.7s-9.3-6.5-15.1-6.5Z"/>
    <path class="cls-4" d="M527.9,673.6v76.1h-7v-9.4c-3,3.6-6.3,6.3-10,8.1s-7.7,2.7-12.1,2.7c-7.8,0-14.4-2.8-19.9-8.4-5.5-5.6-8.2-12.5-8.2-20.6s2.8-14.7,8.3-20.3,12.2-8.4,20-8.4,8.6,1,12.2,2.9c3.6,1.9,6.9,4.8,9.6,8.6v-31.3h7ZM499.6,700.2c-3.9,0-7.6,1-10.9,2.9-3.3,1.9-6,4.6-7.9,8.1-2,3.5-2.9,7.2-2.9,11.1s1,7.6,3,11.1c2,3.5,4.6,6.3,8,8.2s6.9,2.9,10.8,2.9,7.5-1,11-2.9c3.5-1.9,6.1-4.6,8-7.9,1.9-3.3,2.8-7.1,2.8-11.2,0-6.3-2.1-11.7-6.3-15.9-4.2-4.3-9.3-6.4-15.4-6.4Z"/>
    <path class="cls-4" d="M585.9,731.5l6,3.1c-2,3.8-4.2,6.9-6.8,9.3-2.6,2.4-5.4,4.1-8.6,5.4-3.2,1.2-6.8,1.8-10.9,1.8-9,0-16-2.9-21-8.8-5-5.9-7.6-12.5-7.6-19.9s2.1-13.2,6.4-18.6c5.4-6.9,12.7-10.4,21.8-10.4s16.8,3.5,22.4,10.6c4,5,6,11.3,6.1,18.8h-49.4c.1,6.4,2.2,11.6,6.1,15.7,3.9,4.1,8.8,6.1,14.6,6.1s5.5-.5,8.2-1.5c2.6-1,4.9-2.3,6.7-3.9,1.9-1.6,3.9-4.2,6-7.8ZM585.9,716.7c-.9-3.8-2.3-6.8-4.1-9-1.8-2.3-4.2-4.1-7.1-5.4-3-1.4-6.1-2.1-9.3-2.1-5.4,0-10,1.7-13.9,5.2-2.8,2.5-5,6.3-6.4,11.3h40.9Z"/>
    <path class="cls-4" d="M650.4,675.5h14.3l28.5,74.2h-14.7l-5.8-15.3h-30.3l-6,15.3h-14.7l28.6-74.2ZM657.7,695.2l-10,25.5h19.8l-9.9-25.5Z"/>
    <path class="cls-4" d="M700.1,749.7v-74.2h11.7c6.8,0,11.7.4,14.8,1.3,4.4,1.2,8,3.4,10.6,6.6,2.6,3.2,3.9,7,3.9,11.3s-.6,5.4-1.8,7.7c-1.2,2.3-3.1,4.5-5.8,6.5,4.5,2.1,7.8,4.8,9.9,7.9,2.1,3.2,3.1,6.9,3.1,11.3s-1.1,8-3.2,11.4c-2.2,3.4-4.9,6-8.3,7.7-3.4,1.7-8.1,2.5-14.1,2.5h-20.8ZM714.2,689v15.6h3.1c3.4,0,6-.7,7.7-2.2,1.7-1.4,2.5-3.4,2.5-5.9s-.8-4.2-2.4-5.5c-1.6-1.4-4-2-7.2-2h-3.6ZM714.2,717.2v19h3.5c5.9,0,9.8-.7,11.9-2.2,2-1.5,3.1-3.6,3.1-6.5s-1.2-5.7-3.6-7.6c-2.4-1.8-6.4-2.8-11.9-2.8h-2.9Z"/>
    <path class="cls-4" d="M778.5,675.5h14.3l28.5,74.2h-14.7l-5.8-15.3h-30.3l-6,15.3h-14.7l28.6-74.2ZM785.7,695.2l-10,25.5h19.8l-9.9-25.5Z"/>
    <path class="cls-4" d="M867.1,685.6l-10.5,9.2c-3.7-5.1-7.4-7.7-11.2-7.7s-3.4.5-4.5,1.5c-1.2,1-1.8,2.1-1.8,3.4s.4,2.4,1.3,3.5c1.1,1.5,4.6,4.7,10.4,9.5,5.4,4.5,8.7,7.3,9.8,8.5,2.9,2.9,4.9,5.7,6.1,8.3s1.8,5.5,1.8,8.6c0,6.1-2.1,11.1-6.3,15.1-4.2,4-9.7,6-16.5,6s-9.9-1.3-13.8-3.9c-3.9-2.6-7.3-6.7-10.1-12.2l11.9-7.2c3.6,6.6,7.7,9.8,12.3,9.8s4.5-.7,6.1-2.1c1.7-1.4,2.5-3,2.5-4.9s-.6-3.4-1.9-5c-1.2-1.7-4-4.3-8.2-7.7-8.1-6.6-13.3-11.7-15.7-15.3-2.4-3.6-3.5-7.2-3.5-10.7,0-5.1,2-9.6,5.9-13.2,3.9-3.7,8.8-5.5,14.5-5.5s7.2.9,10.6,2.6c3.3,1.7,7,4.8,10.9,9.4Z"/>
    <path class="cls-4" d="M870.4,675.5h41v13.9h-13.5v60.3h-14.3v-60.3h-13.2v-13.9Z"/>
    <path class="cls-4" d="M952,673.6c10.5,0,19.5,3.8,27.1,11.4,7.6,7.6,11.3,16.9,11.3,27.8s-3.7,20-11.2,27.5-16.5,11.2-27.1,11.2-20.4-3.8-27.8-11.5c-7.4-7.7-11.1-16.8-11.1-27.4s1.7-13.6,5.1-19.6c3.4-6,8.2-10.7,14.2-14.1,6-3.5,12.5-5.2,19.4-5.2ZM951.8,687.4c-6.9,0-12.6,2.4-17.3,7.2-4.7,4.8-7,10.8-7,18.2s2.9,14.7,8.8,19.5c4.6,3.7,9.8,5.6,15.8,5.6s12.4-2.4,17.1-7.3c4.7-4.8,7.1-10.8,7.1-17.9s-2.4-13-7.1-17.9c-4.7-4.9-10.5-7.3-17.3-7.3Z"/>
    <path class="cls-4" d="M1038.5,685.6l-10.5,9.2c-3.7-5.1-7.4-7.7-11.2-7.7s-3.4.5-4.5,1.5c-1.2,1-1.8,2.1-1.8,3.4s.4,2.4,1.3,3.5c1.1,1.5,4.6,4.7,10.4,9.5,5.4,4.5,8.7,7.3,9.8,8.5,2.9,2.9,4.9,5.7,6.1,8.3s1.8,5.5,1.8,8.6c0,6.1-2.1,11.1-6.3,15.1-4.2,4-9.7,6-16.5,6s-9.9-1.3-13.8-3.9c-3.9-2.6-7.3-6.7-10.1-12.2l11.9-7.2c3.6,6.6,7.7,9.8,12.3,9.8s4.5-.7,6.1-2.1c1.7-1.4,2.5-3,2.5-4.9s-.6-3.4-1.9-5c-1.2-1.7-4-4.3-8.2-7.7-8.1-6.6-13.3-11.7-15.7-15.3-2.4-3.6-3.5-7.2-3.5-10.7,0-5.1,2-9.6,5.9-13.2,3.9-3.7,8.8-5.5,14.5-5.5s7.2.9,10.6,2.6c3.3,1.7,7,4.8,10.9,9.4Z"/>
    <path class="cls-4" d="M1071.1,749.7l10.6-74.2h1.2l30.2,60.9,29.9-60.9h1.2l10.7,74.2h-7.3l-7.3-53.1-26.2,53.1h-1.9l-26.5-53.5-7.3,53.5h-7.2Z"/>
    <path class="cls-4" d="M1210.3,731.5l6,3.1c-2,3.8-4.2,6.9-6.8,9.3-2.6,2.4-5.4,4.1-8.6,5.4-3.2,1.2-6.8,1.8-10.9,1.8-9,0-16-2.9-21-8.8-5-5.9-7.6-12.5-7.6-19.9s2.1-13.2,6.4-18.6c5.4-6.9,12.7-10.4,21.8-10.4s16.8,3.5,22.4,10.6c4,5,6,11.3,6.1,18.8h-49.4c.1,6.4,2.2,11.6,6.1,15.7,3.9,4.1,8.8,6.1,14.6,6.1s5.5-.5,8.2-1.5c2.6-1,4.9-2.3,6.7-3.9,1.9-1.6,3.9-4.2,6-7.8ZM1210.3,716.7c-.9-3.8-2.3-6.8-4.1-9-1.8-2.3-4.2-4.1-7.1-5.4-3-1.4-6.1-2.1-9.3-2.1-5.4,0-10,1.7-13.9,5.2-2.8,2.5-5,6.3-6.4,11.3h40.9Z"/>
    <path class="cls-4" d="M1224.4,694.8h7.2v8c2.2-3.2,4.4-5.5,6.8-7.1,2.4-1.6,4.9-2.3,7.5-2.3s4,.6,6.3,1.9l-3.7,6c-1.5-.6-2.7-1-3.7-1-2.4,0-4.6,1-6.8,2.9-2.2,1.9-3.9,4.9-5,9-.9,3.1-1.3,9.4-1.3,19v18.6h-7.2v-54.9Z"/>
    <path class="cls-4" d="M1254,673.6h7.1v43.3l25.4-22.1h10.4l-30.2,26.2,31.9,28.7h-9.9l-27.6-24.7v24.7h-7.1v-76.1Z"/>
    <path class="cls-4" d="M1356.4,694.8v54.9h-7v-9.4c-3,3.6-6.3,6.3-10,8.1s-7.7,2.7-12.1,2.7c-7.8,0-14.4-2.8-19.9-8.4-5.5-5.6-8.2-12.5-8.2-20.6s2.8-14.7,8.3-20.3,12.2-8.4,20-8.4,8.6,1,12.2,2.9c3.6,1.9,6.9,4.8,9.6,8.6v-10.1h7ZM1328.2,700.2c-3.9,0-7.6,1-10.9,2.9-3.3,1.9-6,4.6-7.9,8.1-2,3.5-2.9,7.2-2.9,11.1s1,7.6,3,11.1c2,3.5,4.6,6.3,8,8.2,3.3,2,6.9,2.9,10.8,2.9s7.5-1,11-2.9,6.1-4.6,8-7.9c1.9-3.3,2.8-7.1,2.8-11.2,0-6.3-2.1-11.7-6.3-15.9-4.2-4.3-9.3-6.4-15.4-6.4Z"/>
    <path class="cls-4" d="M1374.3,674.4h7.1v20.4h11.2v6.1h-11.2v48.8h-7.1v-48.8h-9.6v-6.1h9.6v-20.4Z"/>
    <path class="cls-4" d="M1398.2,694.8h7.1v25.6c0,6.3.3,10.6,1,12.9,1,3.4,2.9,6,5.8,8,2.8,2,6.2,2.9,10.2,2.9s7.3-.9,10-2.8c2.7-1.9,4.6-4.4,5.7-7.5.7-2.1,1.1-6.6,1.1-13.5v-25.6h7.2v26.9c0,7.6-.9,13.3-2.6,17.1s-4.4,6.8-8,9c-3.5,2.2-8,3.3-13.3,3.3s-9.8-1.1-13.4-3.3-6.3-5.2-8-9.1c-1.8-3.9-2.6-9.7-2.6-17.5v-26.4Z"/>
    <path class="cls-4" d="M1512.4,694.8v54.9h-7v-9.4c-3,3.6-6.3,6.3-10,8.1s-7.7,2.7-12.1,2.7c-7.8,0-14.4-2.8-19.9-8.4-5.5-5.6-8.2-12.5-8.2-20.6s2.8-14.7,8.3-20.3,12.2-8.4,20-8.4,8.6,1,12.2,2.9c3.6,1.9,6.9,4.8,9.6,8.6v-10.1h7ZM1484.2,700.2c-3.9,0-7.6,1-10.9,2.9-3.3,1.9-6,4.6-7.9,8.1-2,3.5-2.9,7.2-2.9,11.1s1,7.6,3,11.1c2,3.5,4.6,6.3,8,8.2,3.3,2,6.9,2.9,10.8,2.9s7.5-1,11-2.9,6.1-4.6,8-7.9c1.9-3.3,2.8-7.1,2.8-11.2,0-6.3-2.1-11.7-6.3-15.9-4.2-4.3-9.3-6.4-15.4-6.4Z"/>
  </g>
</svg>